<svg width="24" height="24" viewBox="0 0 24 24" fill="none" xmlns="http://www.w3.org/2000/svg">
<path d="M11.9876 0C11.5204 0.00750305 11.144 0.387908 11.144 0.856848C11.144 0.86135 11.144 0.865101 11.144 0.869603V0.868853V15.935L5.75496 10.5433C5.59973 10.388 5.38599 10.2927 5.14977 10.2927C4.67656 10.2927 4.29335 10.6768 4.29335 11.1495C4.29335 11.3866 4.38934 11.6005 4.54457 11.7558L11.3952 18.6098C11.3974 18.6121 11.4012 18.6151 11.4049 18.6181L11.4064 18.6196C11.4147 18.6278 11.4237 18.6361 11.4327 18.6443L11.4334 18.6451C11.4447 18.6556 11.4567 18.6653 11.4687 18.6758L11.4702 18.6773C11.4762 18.6818 11.4844 18.6878 11.4927 18.6938L11.4949 18.6953C11.5062 18.7036 11.5204 18.7141 11.5354 18.7239L11.5392 18.7261C11.5467 18.7314 11.5579 18.7381 11.5699 18.7449L11.5737 18.7471C11.5827 18.7524 11.5954 18.7599 11.6089 18.7666L11.6134 18.7689C11.6202 18.7726 11.6322 18.7786 11.6442 18.7831L11.6494 18.7854C11.6569 18.7891 11.6704 18.7951 11.6839 18.8011L11.6892 18.8034C11.6974 18.8071 11.7124 18.8116 11.7274 18.8169L11.7334 18.8184C11.7394 18.8206 11.7514 18.8251 11.7634 18.8289L11.7694 18.8304C11.7776 18.8327 11.7926 18.8372 11.8076 18.8402L11.8129 18.8409C11.8204 18.8432 11.8346 18.8462 11.8481 18.8484L11.8534 18.8492C11.8616 18.8507 11.8759 18.8529 11.8901 18.8544L11.8946 18.8552C11.9051 18.8567 11.9201 18.8582 11.9351 18.8589H11.9374C11.9509 18.8597 11.9659 18.8604 11.9816 18.8604C11.9876 18.8604 11.9959 18.8612 12.0026 18.8612C12.0094 18.8612 12.0169 18.8612 12.0244 18.8604C12.0506 18.8597 12.0754 18.8582 12.1001 18.8552L12.0964 18.8559C12.1031 18.8552 12.1046 18.8544 12.1069 18.8544L12.1016 18.8552C12.1241 18.8522 12.1421 18.8492 12.1601 18.8454L12.1549 18.8462C12.1744 18.8424 12.1879 18.8394 12.2014 18.8364L12.1954 18.8379C12.2119 18.8342 12.2231 18.8312 12.2336 18.8281L12.2276 18.8297C12.2509 18.8229 12.2681 18.8176 12.2846 18.8124L12.2786 18.8139C12.2951 18.8086 12.3048 18.8041 12.3153 18.8004L12.3101 18.8026C12.3311 18.7944 12.3461 18.7884 12.3603 18.7809L12.3551 18.7831C12.3828 18.7704 12.4038 18.7599 12.4248 18.7486L12.4203 18.7509C12.4241 18.7486 12.4248 18.7479 12.4256 18.7471L12.4226 18.7494C12.4428 18.7381 12.4586 18.7276 12.4743 18.7171L12.4713 18.7194C12.4856 18.7096 12.4968 18.7028 12.5073 18.6946L12.5051 18.6961C12.5261 18.6803 12.5441 18.6661 12.5613 18.6511L12.5606 18.6518C12.5621 18.6503 12.5643 18.6481 12.5658 18.6466C12.5801 18.6346 12.5936 18.6233 12.6056 18.6113L19.4554 11.758C19.6159 11.602 19.7149 11.3844 19.7149 11.1435C19.7149 10.6701 19.3317 10.2867 18.8585 10.2867C18.8495 10.2867 18.8412 10.2867 18.8322 10.2874H18.8337C18.6028 10.2942 18.395 10.3917 18.245 10.5455L12.8568 15.9372V0.871104C12.8568 0.867352 12.8568 0.863601 12.8568 0.859849C12.8568 0.386407 12.4736 0.00300122 12.0004 0.00300122C11.9959 0.00300122 11.9914 0.00300122 11.9869 0.00300122L11.9876 0ZM0.868419 22.2863C0.864669 22.2863 0.860919 22.2863 0.85642 22.2863C0.383214 22.2863 0 22.6697 0 23.1432C0 23.6166 0.383964 24 0.85642 24C0.860919 24 0.864669 24 0.869169 24H23.1316C23.1353 24 23.1391 24 23.1436 24C23.6168 24 24 23.6166 24 23.1432C24 22.6697 23.6168 22.2863 23.1436 22.2863C23.1391 22.2863 23.1353 22.2863 23.1308 22.2863H0.868419Z" fill="white"/>
</svg>
