<svg width="47" height="35" viewBox="0 0 47 35" fill="none" xmlns="http://www.w3.org/2000/svg">
<path d="M46.7335 29.1834C46.7335 30.1863 46.4327 31.139 45.9814 31.9914L31.2393 15.4943L45.831 2.70776C46.3825 3.61034 46.7335 4.66335 46.7335 5.81665V29.1834Z" fill="white"/>
<path d="M23.3668 18.5029L43.6748 0.75215C42.8224 0.30086 41.9198 0 40.9169 0H5.86677C4.8639 0 3.91118 0.30086 3.10889 0.75215L23.3668 18.5029Z" fill="white"/>
<path d="M29.0329 17.3997L24.3194 21.5114C24.0687 21.7621 23.7177 21.8624 23.3667 21.8624C23.0157 21.8624 22.6647 21.7621 22.414 21.5114L17.7005 17.3997L2.75781 34.0974C3.66039 34.649 4.7134 35 5.81655 35H40.8667C42.02 35 43.073 34.649 43.9255 34.0974L29.0329 17.3997Z" fill="white"/>
<path d="M0.902579 2.70776C0.351003 3.61034 0 4.66335 0 5.81665V29.1834C0 30.1863 0.30086 31.139 0.752149 31.9914L15.4943 15.4943L0.902579 2.70776Z" fill="white"/>
</svg>
