<svg width="48" height="46" viewBox="0 0 48 46" fill="none" xmlns="http://www.w3.org/2000/svg">
<path d="M43.6123 13.951C43.2444 13.5831 42.6501 13.5831 42.2823 13.951C41.9144 14.3188 41.9144 14.9131 42.2823 15.281C46.2817 19.2804 46.2817 25.7795 42.2823 29.779C41.9144 30.1469 41.9144 30.7411 42.2823 31.109C42.4709 31.2977 42.7067 31.3826 42.952 31.3826C43.1972 31.3826 43.433 31.2882 43.6217 31.109C48.338 26.3738 48.338 18.6767 43.6123 13.951Z" fill="white"/>
<path d="M40.7539 16.7996C40.386 16.4317 39.7917 16.4317 39.4239 16.7996C39.056 17.1675 39.056 17.7617 39.4239 18.1296C41.8481 20.5538 41.8481 24.4872 39.4239 26.9114C39.056 27.2793 39.056 27.8736 39.4239 28.2414C39.6125 28.4301 39.8483 28.515 40.0936 28.515C40.3388 28.515 40.5746 28.4207 40.7633 28.2414C43.9044 25.1004 43.9044 19.9595 40.7539 16.7996Z" fill="white"/>
<path d="M4.88142 15.281C5.24929 14.9131 5.24929 14.3188 4.88142 13.951C4.51354 13.5831 3.91928 13.5831 3.55141 13.951C-1.1838 18.6862 -1.1838 26.3832 3.55141 31.1185C3.74006 31.3071 3.97588 31.392 4.22113 31.392C4.46638 31.392 4.7022 31.2977 4.89085 31.1185C5.25872 30.7506 5.25872 30.1563 4.89085 29.7884C0.881956 25.7796 0.881957 19.2804 4.88142 15.281Z" fill="white"/>
<path d="M7.73952 16.7996C7.37165 16.4317 6.77739 16.4317 6.40951 16.7996C3.24956 19.9595 3.24956 25.0909 6.40951 28.2509C6.59817 28.4395 6.83399 28.5244 7.07924 28.5244C7.32449 28.5244 7.5603 28.4301 7.74896 28.2509C8.11683 27.883 8.11683 27.2887 7.74896 26.9209C5.32475 24.4967 5.32475 20.5632 7.74896 18.139C8.1074 17.7712 8.1074 17.1769 7.73952 16.7996Z" fill="white"/>
<path d="M33.9526 0H31.453C31.6039 0.424471 31.6699 0.877241 31.6039 1.33001L31.3492 3.22598C31.0851 5.34834 29.2552 6.96133 27.1045 6.96133H20.0489C17.8982 6.96133 16.0683 5.34834 15.8041 3.21655L15.5495 1.31114C15.4929 0.848943 15.5589 0.405606 15.7004 0H13.2007C11.9745 0 10.9746 0.999865 10.9746 2.22611V42.8339C10.9746 44.0601 11.9745 45.0505 13.2007 45.0505H33.9526C35.1789 45.0505 36.1788 44.0601 36.1788 42.8339V2.22611C36.1788 0.999865 35.1789 0 33.9526 0ZM28.3496 42.1453H18.8037C18.2849 42.1453 17.8605 41.7302 17.8605 41.202C17.8605 40.6832 18.2849 40.2587 18.8037 40.2587H28.3496C28.8684 40.2587 29.2929 40.6832 29.2929 41.202C29.2929 41.7302 28.8684 42.1453 28.3496 42.1453Z" fill="white"/>
<path d="M17.6721 2.98073L17.4174 1.06589C17.3891 0.801779 17.4646 0.528231 17.6438 0.320712C17.823 0.122625 18.0871 0 18.3512 0H28.8027C29.0762 0 29.3309 0.122625 29.5101 0.320712C29.6893 0.528231 29.7742 0.801779 29.7365 1.06589L29.4818 2.98073C29.3309 4.16925 28.3122 5.07479 27.1048 5.07479H20.0491C18.8512 5.07479 17.823 4.16925 17.6721 2.98073Z" fill="white"/>
</svg>
